<svg xmlns="http://www.w3.org/2000/svg" xmlns:xlink="http://www.w3.org/1999/xlink" viewBox="0,0,256,256" width="24px" height="24px"><g fill="#172a33" fill-rule="nonzero" stroke="none" stroke-width="1" stroke-linecap="butt" stroke-linejoin="miter" stroke-miterlimit="10" stroke-dasharray="" stroke-dashoffset="0" font-family="none" font-weight="none" font-size="none" text-anchor="none" style="mix-blend-mode: normal"><g transform="scale(10.66667,10.66667)"><path d="M15.231,11.231c-0.305,0 -0.527,0.123 -0.668,0.369c-0.141,0.246 -0.211,0.684 -0.211,1.313v0.439c0,0.625 0.066,1.062 0.199,1.31c0.133,0.248 0.357,0.372 0.674,0.372c0.328,0 0.576,-0.146 0.744,-0.439v-2.895c-0.163,-0.312 -0.409,-0.469 -0.738,-0.469zM19,3h-14c-1.104,0 -2,0.895 -2,2v14c0,1.105 0.896,2 2,2h14c1.104,0 2,-0.895 2,-2v-14c0,-1.105 -0.896,-2 -2,-2zM10.894,16.3h-0.026c-0.358,0 -0.679,-0.219 -0.81,-0.552l-0.955,-2.431l-0.95,2.429c-0.131,0.334 -0.452,0.554 -0.81,0.554h-0.026c-0.64,0 -1.061,-0.667 -0.785,-1.244l1.457,-3.056l-1.419,-2.988c-0.274,-0.577 0.147,-1.243 0.786,-1.243h0.005c0.358,0 0.679,0.219 0.81,0.552l0.932,2.377l0.932,-2.377c0.131,-0.333 0.452,-0.552 0.81,-0.552h0.006c0.639,0 1.06,0.665 0.786,1.242l-1.415,2.988l1.457,3.056c0.275,0.578 -0.146,1.245 -0.785,1.245zM17.64,15.57c0,0.458 -0.372,0.83 -0.83,0.83h-0.01c-0.404,0 -0.724,-0.294 -0.799,-0.676c-0.332,0.456 -0.748,0.693 -1.256,0.693c-0.664,0 -1.171,-0.254 -1.521,-0.762c-0.35,-0.508 -0.528,-1.254 -0.536,-2.238v-0.48c0,-1.039 0.176,-1.814 0.527,-2.326c0.351,-0.512 0.863,-0.768 1.535,-0.768c0.488,0 0.895,0.211 1.219,0.633v-2.346c0,-0.458 0.372,-0.83 0.83,-0.83h0.01c0.458,0 0.83,0.372 0.83,0.83v7.44z"></path></g></g></svg>